<?xml version="1.0" standalone="no"?>
<!DOCTYPE svg PUBLIC "-//W3C//DTD SVG 20010904//EN"
 "http://www.w3.org/TR/2001/REC-SVG-20010904/DTD/svg10.dtd">
<svg version="1.0" xmlns="http://www.w3.org/2000/svg"
 width="100.000000pt" height="101.600000pt" viewBox="0 0 100.000000 101.600000"
 preserveAspectRatio="xMidYMid meet">
<metadata>
Created by potrace 1.13, written by Peter Selinger 2001-2015
</metadata>
<g transform="translate(0.000000,101.600000) scale(0.080000,-0.080000)"
fill="#000000" stroke="none">
<path d="M0 635 l0 -635 625 0 625 0 0 635 0 635 -625 0 -625 0 0 -635z m827
473 c170 -133 183 -150 183 -242 0 -30 5 -58 11 -62 13 -8 69 -127 69 -147 0
-7 15 -28 34 -46 56 -54 79 -120 84 -237 9 -220 -72 -333 -238 -334 -49 0 -75
6 -105 23 -49 28 -101 95 -115 149 l-11 40 -27 -25 c-15 -13 -40 -31 -57 -40
-42 -20 -175 -23 -212 -4 -66 35 -113 117 -113 198 l0 38 -27 -15 c-34 -17
-95 -18 -111 -2 -17 17 -15 60 7 118 l19 49 -40 -20 c-27 -14 -54 -19 -86 -17
l-47 3 -3 43 c-4 59 28 112 120 197 86 79 181 146 304 211 83 44 194 121 194
134 0 4 -13 16 -30 28 -18 14 -30 32 -30 46 0 30 7 36 42 36 22 0 68 -30 185
-122z"/>
<path d="M706 941 c-24 -27 -97 -171 -86 -171 4 0 13 13 20 30 7 16 17 27 23
23 5 -3 7 -1 3 5 -6 9 15 30 58 57 11 8 13 18 8 43 l-7 34 -19 -21z"/>
<path d="M897 924 c-13 -14 -7 -32 13 -37 23 -6 25 2 7 27 -7 9 -16 14 -20 10z"/>
</g>
</svg>
